<svg width="61" height="41" viewBox="0 0 61 41" fill="none" xmlns="http://www.w3.org/2000/svg">
<g clip-path="url(#clip0)">
<path d="M2.55375 21.7808L2.53448 21.8012C2.54184 21.7953 2.54832 21.7884 2.55375 21.7808V21.7808Z" fill="#6054FE"/>
<path d="M33.9371 2.41874C32.3567 0.870447 30.2139 0.000732422 27.9797 0.000732422C25.7455 0.000732422 23.6027 0.870447 22.0223 2.41874L11.8777 12.365L11.296 12.9302L4.52789 19.7898C6.63009 18.1377 9.28027 17.3044 11.9704 17.4497C14.6605 17.595 17.2013 18.7087 19.1057 20.5772L27.9231 29.2222L36.5815 37.7113C38.5508 39.6418 41.2216 40.7263 44.0065 40.7263C46.7913 40.7263 49.4622 39.6418 51.4315 37.7113L60.6918 28.632L33.9371 2.41874Z" fill="#7878F9"/>
<path d="M3.65328 20.5679C5.7051 18.5562 8.48798 17.426 11.3897 17.426C14.2914 17.426 17.0743 18.5562 19.1261 20.5679L27.9433 29.2126L19.1249 37.8586C17.073 39.8698 14.2903 40.9995 11.3889 40.9993C8.48743 40.9991 5.7049 39.8689 3.65328 37.8574V37.8574C1.31481 35.5647 0.00106842 32.4551 0.00106842 29.2126C0.00106842 25.9702 1.31481 22.8606 3.65328 20.5679V20.5679Z" fill="#F277EF"/>
</g>
<defs>
<clipPath id="clip0">
<rect width="60.68" height="41" fill="white"/>
</clipPath>
</defs>
</svg>
