<svg width="232" height="53" viewBox="0 0 232 53" fill="none" xmlns="http://www.w3.org/2000/svg">
<g clip-path="url(#clip0)">
<path d="M2.55375 21.7808L2.53448 21.8012C2.54184 21.7953 2.54832 21.7884 2.55375 21.7808V21.7808Z" fill="#6054FE"/>
<path d="M33.9371 2.41874C32.3567 0.870447 30.2139 0.000732422 27.9797 0.000732422C25.7455 0.000732422 23.6027 0.870447 22.0223 2.41874L11.8777 12.365L11.296 12.9302L4.52789 19.7898C6.63009 18.1377 9.28027 17.3044 11.9704 17.4497C14.6605 17.595 17.2013 18.7087 19.1057 20.5772L27.9231 29.2222L36.5815 37.7113C38.5508 39.6418 41.2216 40.7263 44.0065 40.7263C46.7913 40.7263 49.4622 39.6418 51.4315 37.7113L60.6918 28.632L33.9371 2.41874Z" fill="#7878F9"/>
<path d="M3.65328 20.5679C5.7051 18.5562 8.48798 17.426 11.3897 17.426C14.2914 17.426 17.0743 18.5562 19.1261 20.5679L27.9433 29.2126L19.1249 37.8586C17.073 39.8698 14.2903 40.9995 11.3889 40.9993C8.48743 40.9991 5.7049 39.8689 3.65328 37.8574V37.8574C1.31481 35.5647 0.00106842 32.4551 0.00106842 29.2126C0.00106842 25.9702 1.31481 22.8606 3.65328 20.5679V20.5679Z" fill="#F277EF"/>
</g>
<path d="M74.0626 21.92C75.428 21.92 76.6013 22.2293 77.5826 22.848C78.564 23.4667 79.2893 24.3093 79.7586 25.376V22.144H85.1986V40H79.7586V36.768C79.2893 37.8347 78.564 38.6773 77.5826 39.296C76.6013 39.9147 75.428 40.224 74.0626 40.224C72.5906 40.224 71.268 39.8613 70.0946 39.136C68.9426 38.3893 68.0253 37.3227 67.3426 35.936C66.6813 34.5493 66.3506 32.928 66.3506 31.072C66.3506 29.1947 66.6813 27.5733 67.3426 26.208C68.0253 24.8213 68.9426 23.7653 70.0946 23.04C71.268 22.2933 72.5906 21.92 74.0626 21.92ZM75.8226 26.72C74.6493 26.72 73.7 27.104 72.9746 27.872C72.2706 28.64 71.9186 29.7067 71.9186 31.072C71.9186 32.4373 72.2706 33.504 72.9746 34.272C73.7 35.04 74.6493 35.424 75.8226 35.424C76.9746 35.424 77.9133 35.0293 78.6386 34.24C79.3853 33.4507 79.7586 32.3947 79.7586 31.072C79.7586 29.728 79.3853 28.672 78.6386 27.904C77.9133 27.1147 76.9746 26.72 75.8226 26.72ZM94.4381 16.32V40H88.9661V16.32H94.4381ZM97.7041 17.12C97.7041 16.288 98.0028 15.6053 98.6001 15.072C99.1975 14.5173 99.9868 14.24 100.968 14.24C101.949 14.24 102.739 14.5173 103.336 15.072C103.933 15.6053 104.232 16.288 104.232 17.12C104.232 17.9307 103.933 18.6133 103.336 19.168C102.739 19.7013 101.949 19.968 100.968 19.968C99.9868 19.968 99.1975 19.7013 98.6001 19.168C98.0028 18.6133 97.7041 17.9307 97.7041 17.12ZM103.688 22.144V40H98.2161V22.144H103.688Z" fill="#7747FF"/>
<path d="M117.578 35.296V40H115.114C113.023 40 111.391 39.488 110.218 38.464C109.066 37.4187 108.49 35.7013 108.49 33.312V26.752H106.09V22.144H108.49V17.76H113.962V22.144H117.546V26.752H113.962V33.408C113.962 34.112 114.101 34.6027 114.378 34.88C114.677 35.1573 115.167 35.296 115.85 35.296H117.578ZM131.982 21.952C134.03 21.952 135.651 22.6347 136.846 24C138.062 25.3653 138.67 27.2427 138.67 29.632V40H133.198V30.272C133.198 29.0773 132.878 28.1493 132.238 27.488C131.619 26.8053 130.787 26.464 129.742 26.464C128.632 26.464 127.747 26.816 127.086 27.52C126.446 28.224 126.126 29.2267 126.126 30.528V40H120.654V16.32H126.126V25.408C126.638 24.3413 127.395 23.4987 128.398 22.88C129.422 22.2613 130.616 21.952 131.982 21.952ZM159.239 30.592C159.239 31.04 159.185 31.5307 159.079 32.064H146.695C146.759 33.408 147.1 34.3787 147.719 34.976C148.337 35.552 149.127 35.84 150.087 35.84C150.897 35.84 151.569 35.6373 152.103 35.232C152.636 34.8267 152.988 34.304 153.159 33.664H158.951C158.716 34.9227 158.204 36.0533 157.415 37.056C156.625 38.0373 155.623 38.816 154.407 39.392C153.191 39.9467 151.836 40.224 150.343 40.224C148.593 40.224 147.036 39.8613 145.671 39.136C144.327 38.3893 143.271 37.3227 142.503 35.936C141.735 34.5493 141.351 32.928 141.351 31.072C141.351 29.1947 141.724 27.5733 142.471 26.208C143.239 24.8213 144.305 23.7653 145.671 23.04C147.036 22.2933 148.593 21.92 150.343 21.92C152.113 21.92 153.671 22.2827 155.015 23.008C156.359 23.7333 157.393 24.7573 158.119 26.08C158.865 27.3813 159.239 28.8853 159.239 30.592ZM153.703 29.76C153.724 28.5867 153.404 27.712 152.743 27.136C152.103 26.5387 151.303 26.24 150.343 26.24C149.34 26.24 148.508 26.5387 147.847 27.136C147.185 27.7333 146.812 28.608 146.727 29.76H153.703ZM185.227 21.952C187.424 21.952 189.152 22.6347 190.411 24C191.67 25.344 192.299 27.2213 192.299 29.632V40H186.859V30.272C186.859 29.1413 186.55 28.2667 185.931 27.648C185.334 27.008 184.512 26.688 183.467 26.688C182.379 26.688 181.515 27.0293 180.875 27.712C180.256 28.3733 179.947 29.312 179.947 30.528V40H174.475V30.272C174.475 29.1413 174.176 28.2667 173.579 27.648C172.982 27.008 172.16 26.688 171.115 26.688C170.027 26.688 169.163 27.0187 168.523 27.68C167.883 28.3413 167.563 29.2907 167.563 30.528V40H162.091V22.144H167.563V25.184C168.032 24.1813 168.747 23.392 169.707 22.816C170.688 22.24 171.83 21.952 173.131 21.952C174.496 21.952 175.702 22.272 176.747 22.912C177.792 23.5307 178.582 24.4267 179.115 25.6C179.734 24.4907 180.576 23.6053 181.643 22.944C182.731 22.2827 183.926 21.952 185.227 21.952ZM212.895 30.592C212.895 31.04 212.842 31.5307 212.735 32.064H200.351C200.415 33.408 200.756 34.3787 201.375 34.976C201.994 35.552 202.783 35.84 203.743 35.84C204.554 35.84 205.226 35.6373 205.759 35.232C206.292 34.8267 206.644 34.304 206.815 33.664H212.607C212.372 34.9227 211.86 36.0533 211.071 37.056C210.282 38.0373 209.279 38.816 208.063 39.392C206.847 39.9467 205.492 40.224 203.999 40.224C202.25 40.224 200.692 39.8613 199.327 39.136C197.983 38.3893 196.927 37.3227 196.159 35.936C195.391 34.5493 195.007 32.928 195.007 31.072C195.007 29.1947 195.38 27.5733 196.127 26.208C196.895 24.8213 197.962 23.7653 199.327 23.04C200.692 22.2933 202.25 21.92 203.999 21.92C205.77 21.92 207.327 22.2827 208.671 23.008C210.015 23.7333 211.05 24.7573 211.775 26.08C212.522 27.3813 212.895 28.8853 212.895 30.592ZM207.359 29.76C207.38 28.5867 207.06 27.712 206.399 27.136C205.759 26.5387 204.959 26.24 203.999 26.24C202.996 26.24 202.164 26.5387 201.503 27.136C200.842 27.7333 200.468 28.608 200.383 29.76H207.359ZM222.243 21.92C224.505 21.92 226.307 22.4853 227.651 23.616C229.017 24.7467 229.87 26.24 230.211 28.096H225.091C224.942 27.3707 224.601 26.8053 224.067 26.4C223.555 25.9733 222.905 25.76 222.115 25.76C221.497 25.76 221.027 25.8987 220.707 26.176C220.387 26.432 220.227 26.8053 220.227 27.296C220.227 27.8507 220.515 28.2667 221.091 28.544C221.689 28.8213 222.617 29.0987 223.875 29.376C225.241 29.696 226.361 30.0267 227.235 30.368C228.11 30.688 228.867 31.2213 229.507 31.968C230.147 32.7147 230.467 33.7173 230.467 34.976C230.467 36 230.19 36.9067 229.635 37.696C229.081 38.4853 228.281 39.104 227.235 39.552C226.19 40 224.953 40.224 223.523 40.224C221.113 40.224 219.182 39.6907 217.731 38.624C216.281 37.5573 215.395 36.032 215.075 34.048H220.355C220.441 34.816 220.761 35.4027 221.315 35.808C221.891 36.2133 222.627 36.416 223.523 36.416C224.142 36.416 224.611 36.2773 224.931 36C225.251 35.7013 225.411 35.3173 225.411 34.848C225.411 34.2293 225.113 33.792 224.515 33.536C223.939 33.2587 222.99 32.9707 221.667 32.672C220.345 32.3947 219.257 32.096 218.403 31.776C217.55 31.456 216.814 30.944 216.195 30.24C215.577 29.5147 215.267 28.5333 215.267 27.296C215.267 25.696 215.875 24.4053 217.091 23.424C218.307 22.4213 220.025 21.92 222.243 21.92Z" fill="#1D2C40"/>
<defs>
<clipPath id="clip0">
<rect width="60.68" height="41" fill="white"/>
</clipPath>
</defs>
</svg>
